<svg width="77" height="80" viewBox="0 0 34 35" fill="none" xmlns="http://www.w3.org/2000/svg">
<path d="M34 17.3328L30.2291 12.8542L30.7545 6.93083L25.1755 5.61454L22.2545 0.477768L17 2.82142L11.7455 0.477768L8.82454 5.59848L3.24545 6.89873L3.77091 12.8381L0 17.3328L3.77091 21.8114L3.24545 27.7508L8.82454 29.0671L11.7455 34.1878L17 31.8281L22.2545 34.1718L25.1755 29.051L30.7545 27.7347L30.2291 21.8114L34 17.3328ZM12.9509 23.7698L9.27273 19.9172C8.67 19.2912 8.67 18.2799 9.27273 17.6538L9.38091 17.5415C9.98364 16.9154 10.9727 16.9154 11.5755 17.5415L14.0636 20.142L22.0227 11.8589C22.6255 11.2329 23.6145 11.2329 24.2173 11.8589L24.3255 11.9713C24.9282 12.5973 24.9282 13.6086 24.3255 14.2347L15.1764 23.7698C14.5427 24.3958 13.5691 24.3958 12.9509 23.7698Z" fill="#FFFFFF"/>
</svg>
